<svg xmlns="http://www.w3.org/2000/svg" width="512" height="512" fill="none" xmlns:v="https://vecta.io/nano"><path fill-rule="evenodd" d="M102.726 405.978l82.122-23.812 70.93 129.691c.093.168.334.168.426 0l70.93-129.691 82.123 23.812c.184.053.355-.118.3-.302l-23.816-80.497 126.115-68.975c.169-.092.169-.333.001-.425l-127.155-69.544 24.855-84.01c.055-.184-.116-.355-.3-.302l-84.049 24.371L256.204.126c-.092-.168-.333-.168-.425 0l-69.004 126.168-84.049-24.371c-.184-.053-.355.118-.3.302l24.855 84.01L.126 255.779c-.168.092-.168.333 0 .425l126.115 68.975-23.815 80.497c-.055.184.116.355.3.302zm63.726-149.102l58.179 31.819 31.819 58.178c.092.169.334.169.426 0l31.819-58.178 58.178-31.819c.168-.092.168-.334 0-.426l-58.178-31.819-31.819-58.178c-.092-.169-.334-.169-.426 0l-31.819 58.178-58.179 31.819c-.168.092-.168.334 0 .426z" fill="#fff"/></svg>