<svg xmlns="http://www.w3.org/2000/svg" width="512" height="512" fill="none" xmlns:v="https://vecta.io/nano"><path fill-rule="evenodd" d="M455.925 425.184s-64.56 51.779-193.032 30.352c-97.47-16.257-149.456-123.703-149.456-181.457 0-136.93 101.346-168.091 169.863-168.091s113.213 66.8 113.213 118.52-36.58 96.958-93.507 96.958-73.786-39.965-73.786-76.708 29.727-49.687 56.838-49.687 36.394 23.146 36.394 43.039-15.435 27.018-28.309 27.018-14.147-6.495-19.074-13.321 6.284-32.661-12.176-32.661-21.901 29.701-21.901 29.701 6.73 57.333 62.014 56.344 81.512-43.73 73.89-86.045-48.689-87.281-120.763-78.195-101.501 81.91-88.53 159.734 106.204 122.917 179.509 106.694 146.317-69.293 146.317-203.846S376.896-11.9 237.941 1.429 12.729 136.242 18.25 282.207s144.025 225.462 261.144 229.559 188.918-63.699 188.918-63.699 16.147-14.399 9.816-25.643-22.203 2.76-22.203 2.76z" fill="#fff"/></svg>