<svg xmlns="http://www.w3.org/2000/svg" width="512" height="512" fill="none" xmlns:v="https://vecta.io/nano"><path fill-rule="evenodd" d="M395.138 244.757c-.029-.04-.041-.09-.033-.139l32.664-190.466c.015-.088.092-.152.18-.152h10.338c.08 0 .15.052.174.128l73.59 233.003c.023.072-.002.152-.062.199l-54.259 42.363c-.081.063-.198.047-.259-.036l-62.333-84.9zM-1 371.022c0 .079.051.149.126.174l111.849 36.571c.054.018.114.009.161-.023l250.009-172.6c.042-.029.07-.074.077-.124l26.81-179.892c.017-.11-.069-.21-.18-.21H166.406c-.055 0-.106.024-.141.066L-.958 256.714c-.027.033-.042.074-.042.117v114.191zm158.583 46.063l122.193 40.027c.055.018.116.009.163-.025l145.479-104.353c.081-.057.101-.168.046-.25l-54.536-81.155c-.057-.085-.171-.107-.255-.049l-213.09 145.805z" fill="#fff"/></svg>