<svg xmlns="http://www.w3.org/2000/svg" width="512" height="512" fill="none" xmlns:v="https://vecta.io/nano"><path fill-rule="evenodd" d="M.051 254.527c-.068-.116-.068-.26 0-.377L128.795 34.184c.067-.114.19-.184.322-.184h255.177c.133 0 .256.071.323.186l127.332 219.966a.37.37 0 0 1 0 .373L384.617 474.244c-.067.115-.19.186-.323.186H129.117c-.132 0-.255-.07-.322-.184L.051 254.527zm374.566-.312c0 65.488-53.089 118.577-118.577 118.577s-118.577-53.089-118.577-118.577 53.089-118.577 118.577-118.577 118.577 53.088 118.577 118.577z" fill="#fff"/></svg>