<svg xmlns="http://www.w3.org/2000/svg" fill="none" height="512" width="512" xmlns:v="https://vecta.io/nano"><path d="M342.198.501c.373-.532 1.105-.661 1.637-.289l36.354 25.456c.532.372.661 1.105.289 1.637l-50.599 72.262c24.599 7.859 41.358 16.336 41.358 16.336s-40.964 70.462-110.443 70.462-118.85-65.672-118.85-65.672 17.506-11.172 43.456-20.754l-55.5-66.141c-.417-.497-.352-1.239.145-1.656l33.997-28.527c.498-.417 1.239-.352 1.656.145l70.272 83.747c6.017-.681 12.147-1.061 18.333-1.061 8.891 0 17.771.676 26.44 1.823zm13.746 189.201c18.541-13.242 46.597-47.804 46.597-47.804s71.664 56.79 71.664 177.206-123.896 192.888-123.896 192.888-59.195-59.781-73.727-135.562 21.496-159.927 21.496-159.927 39.324-13.559 57.866-26.801zm-199.683 0c-18.541-13.242-46.597-47.804-46.597-47.804S38 198.688 38 319.104s123.896 192.888 123.896 192.888 59.195-59.781 73.727-135.562-21.496-159.927-21.496-159.927-39.324-13.559-57.866-26.801z" fill="#fff" fill-rule="evenodd"/></svg>