<svg xmlns="http://www.w3.org/2000/svg" width="512" height="512" fill="none" xmlns:v="https://vecta.io/nano"><path fill-rule="evenodd" d="M88.234 42.566C94.43 18.101 116.593 0 142.983 0c19.795 0 37.212 10.185 47.296 25.6h16.513c10.259-10.528 24.592-17.067 40.453-17.067 23.254 0 43.226 14.055 51.884 34.133h13.825c8.663-5.408 18.899-8.533 29.864-8.533 23.255 0 43.226 14.055 51.884 34.133h37.595c.321 0 .622.087.881.237 1.717-.157 3.456-.237 5.213-.237 31.191 0 56.475 25.285 56.475 56.475v169.344l.001.314-.001.314v2.439c0 1.033-.028 2.062-.084 3.086C491.384 417.717 385.749 512 255.933 512 123.974 512 17 414.577 17 294.4c0-58.009 24.925-110.717 65.554-149.725-.101 56.553.854 115.019 5.257 114.016 11.79-2.688 2.578-177.851.423-216.125z" fill="#fff"/></svg>